# xmcd CD database file
#
# Track frame offsets:
#	150
#	27562
#	63787
#	107712
#	151800
#	210225
#	243012
#	278925
#
# Disc length: 4070 seconds
#
# Revision: 0
# Processed by: cddbd v1.4PL0 Copyright (c) Steve Scherf et al.
# Submitted via: CDex 1.50Beta7
#
DISCID=5f0fe408
DTITLE=Warnfried Altmann and Hans Guenther Wauer - Keine Gewalt -- Improvisierte Musik
DYEAR=1993
DGENRE=Jazz
TTITLE0=Miedzianow
TTITLE1=Kulmination
TTITLE2=Fuer Roger
TTITLE3=Wer nur den lieben Gott laesst walten
TTITLE4=Bausteine
TTITLE5=Modifizierte Modi - in memoriam O. Messiaen
TTITLE6=Keine Gewalt
TTITLE7=Kyrieleis - nun bitten wir den Heiligen Geist
EXTD=YEAR: 1993
EXTT0=
EXTT1=
EXTT2=
EXTT3=
EXTT4=
EXTT5=
EXTT6=
EXTT7=
PLAYORDER=
